<svg width="229" height="114" viewBox="0 0 229 114" fill="none" xmlns="http://www.w3.org/2000/svg">
<g clip-path="url(#clip0_1058_54)">
<rect width="57.2981" height="57.2981" transform="translate(0 57)" fill="white"/>
<rect y="57" width="57.2981" height="57.2981" fill="#F7C54C"/>
<path d="M30.0497 94.3375C30.7054 94.422 31.3481 94.4882 31.9776 94.5361C37.6439 94.9673 42.2511 93.9157 45.7993 91.3814C49.3475 88.8471 51.8367 84.8301 53.2669 79.3304C53.4258 78.7193 53.5716 78.0899 53.7044 77.4422C53.0487 77.3577 52.406 77.2915 51.7764 77.2436C46.1102 76.8125 41.5029 77.864 37.9547 80.3983C34.4065 82.9326 31.9173 86.9496 30.4872 92.4493C30.3283 93.0604 30.1824 93.6898 30.0497 94.3375Z" fill="#7B0E0E"/>
<path d="M3.31043 77.4423C3.96616 77.3578 4.60882 77.2916 5.23841 77.2437C10.9047 76.8125 15.5119 77.8641 19.0601 80.3984C22.6083 82.9327 25.0975 86.9497 26.5277 92.4494C26.6866 93.0605 26.8324 93.6898 26.9652 94.3375C26.3094 94.4221 25.6668 94.4883 25.0372 94.5362C19.3709 94.9673 14.7637 93.9158 11.2155 91.3815C7.66728 88.8472 5.1781 84.8302 3.74793 79.3305C3.58902 78.7194 3.44319 78.09 3.31043 77.4423Z" fill="#9F2424"/>
<path d="M30.0497 76.7657C30.7054 76.8502 31.348 76.9164 31.9776 76.9643C37.6439 77.3955 42.2511 76.3439 45.7993 73.8096C49.3475 71.2754 51.8367 67.2583 53.2669 61.7586C53.4258 61.1475 53.5716 60.5182 53.7044 59.8705C53.0487 59.786 52.406 59.7197 51.7764 59.6718C46.1102 59.2407 41.5029 60.2923 37.9547 62.8265C34.4065 65.3608 31.9173 69.3778 30.4872 74.8776C30.3283 75.4886 30.1824 76.118 30.0497 76.7657Z" fill="#9F2424"/>
<path d="M3.31043 59.8705C3.96616 59.786 4.60882 59.7198 5.23841 59.6719C10.9047 59.2407 15.5119 60.2923 19.0601 62.8266C22.6083 65.3609 25.0975 69.3779 26.5277 74.8776C26.6866 75.4887 26.8324 76.1181 26.9652 76.7658C26.3094 76.8503 25.6668 76.9165 25.0372 76.9644C19.3709 77.3955 14.7637 76.344 11.2155 73.8097C7.66728 71.2754 5.1781 67.2584 3.74793 61.7587C3.58902 61.1476 3.44319 60.5182 3.31043 59.8705Z" fill="#7B0E0E"/>
<path d="M30.0497 111.908C30.7054 111.993 31.348 112.059 31.9776 112.107C37.6439 112.538 42.2511 111.486 45.7993 108.952C49.3475 106.418 51.8367 102.401 53.2669 96.9012C53.4258 96.2901 53.5716 95.6607 53.7044 95.013C53.0487 94.9285 52.406 94.8623 51.7764 94.8144C46.1102 94.3833 41.5029 95.4348 37.9547 97.9691C34.4065 100.503 31.9173 104.52 30.4872 110.02C30.3283 110.631 30.1824 111.261 30.0497 111.908Z" fill="#9F2424"/>
<path d="M3.31043 95.0136C3.96616 94.9291 4.60882 94.8629 5.23841 94.815C10.9047 94.3838 15.5119 95.4354 19.0601 97.9697C22.6083 100.504 25.0975 104.521 26.5277 110.021C26.6866 110.632 26.8324 111.261 26.9652 111.909C26.3094 111.993 25.6668 112.06 25.0372 112.107C19.3709 112.539 14.7637 111.487 11.2155 108.953C7.66728 106.418 5.1781 102.401 3.74793 96.9017C3.58902 96.2907 3.44319 95.6613 3.31043 95.0136Z" fill="#7B0E0E"/>
</g>
<g clip-path="url(#clip1_1058_54)">
<rect width="57.2981" height="56.7888" transform="translate(57 57)" fill="white"/>
<rect x="56.9999" y="56.7979" width="57.2981" height="57.2981" fill="#FCBD26"/>
<path d="M57.1301 113.766C61.2779 114.156 84.0911 109.733 85.7763 85.9235L84.7394 85.0127C60.8891 85.0126 56.0931 110.904 57.1301 113.766Z" fill="#7B0E0E"/>
<path d="M114.168 114.021C110.02 114.411 87.2069 109.987 85.5217 86.1779L86.5586 85.2671C110.409 85.267 115.205 111.158 114.168 114.021Z" fill="#9F2424"/>
<path d="M57.1301 56.768C61.2779 56.3813 84.0911 60.7656 85.7763 84.3643L84.7394 85.2671C60.8891 85.2672 56.0931 59.6051 57.1301 56.768Z" fill="#9F2424"/>
<path d="M114.168 57.0229C110.02 56.6361 87.2069 61.0205 85.5217 84.6192L86.5586 85.522C110.409 85.522 115.205 59.86 114.168 57.0229Z" fill="#7B0E0E"/>
<circle cx="85.6491" cy="85.1399" r="1.90994" fill="#7B0E0E"/>
</g>
<g clip-path="url(#clip2_1058_54)">
<rect width="57.2981" height="57.2981" fill="white"/>
<rect width="57.2981" height="57.2981" fill="#FCBD26"/>
<path d="M28.6621 48.9179C27.9169 48.8409 27.187 48.7475 26.4723 48.6375C20.0407 47.6478 14.847 45.3213 10.8915 41.658C6.93599 37.9947 4.21855 32.9945 2.73919 26.6575C2.57482 25.9534 2.42573 25.2327 2.29192 24.4956C2.29192 24.4956 2.29192 24.4956 2.29192 24.4956C3.03712 24.5726 3.76705 24.666 4.48168 24.776C10.9134 25.7657 16.107 28.0922 20.0625 31.7555C24.018 35.4188 26.7355 40.419 28.2148 46.756C28.3792 47.4601 28.5283 48.1807 28.6621 48.9179Z" fill="#9F2424"/>
<path d="M28.5217 48.9179C29.2669 48.8409 29.9968 48.7475 30.7115 48.6375C37.1431 47.6478 42.3368 45.3213 46.2923 41.658C50.2478 37.9947 52.9653 32.9945 54.4446 26.6575C54.609 25.9534 54.7581 25.2327 54.8919 24.4956C54.8919 24.4956 54.8919 24.4956 54.8919 24.4956C54.1467 24.5726 53.4168 24.666 52.7021 24.776C46.2704 25.7657 41.0768 28.0922 37.1213 31.7555C33.1658 35.4188 30.4483 40.419 28.969 46.756C28.8046 47.4601 28.6555 48.1807 28.5217 48.9179Z" fill="#9F2424"/>
<path d="M28.8932 48.9097C28.7684 48.0955 28.6642 47.2905 28.5804 46.4949C27.8265 39.334 28.732 32.9257 31.2969 27.2699C33.8619 21.6141 38.0862 16.7109 43.9699 12.5602C44.6237 12.099 45.2979 11.6471 45.9926 11.2045C45.9926 11.2045 45.9926 11.2045 45.9926 11.2045C46.1174 12.0187 46.2216 12.8236 46.3054 13.6193C47.0593 20.7802 46.1538 27.1885 43.5889 32.8443C41.024 38.5001 36.7996 43.4033 30.9159 47.554C30.2621 48.0152 29.5879 48.4671 28.8932 48.9097Z" fill="#7B0E0E"/>
<path d="M28.6758 48.9097C28.8006 48.0955 28.9048 47.2905 28.9886 46.4949C29.7425 39.334 28.837 32.9257 26.2721 27.2699C23.7071 21.6141 19.4828 16.7109 13.5991 12.5602C12.9453 12.099 12.2711 11.6471 11.5764 11.2045C11.5764 11.2045 11.5764 11.2045 11.5764 11.2045C11.4516 12.0187 11.3474 12.8236 11.2636 13.6193C10.5097 20.7802 11.4152 27.1885 13.9801 32.8443C16.545 38.5001 20.7694 43.4033 26.6531 47.554C27.3069 48.0152 27.9811 48.4671 28.6758 48.9097Z" fill="#7B0E0E"/>
<path d="M28.5119 48.7864C28.062 48.0963 27.6346 47.4063 27.2297 46.7163C23.5856 40.506 21.7636 34.2958 21.7636 28.0856C21.7637 21.8754 23.5858 15.6652 27.2301 9.455C27.635 8.76497 28.0624 8.07496 28.5123 7.38494C28.5123 7.38494 28.5123 7.38494 28.5123 7.38494C28.9622 8.07497 29.3896 8.76499 29.7945 9.45502C33.4386 15.6653 35.2606 21.8755 35.2605 28.0857C35.2605 34.2959 33.4383 40.5061 29.7941 46.7163C29.3892 47.4063 28.9618 48.0963 28.5119 48.7864Z" fill="#9F2424"/>
</g>
<g clip-path="url(#clip3_1058_54)">
<rect width="57.2981" height="57.2981" transform="translate(114)" fill="white"/>
<rect x="114" width="57.2981" height="57.2981" fill="#F7C54C"/>
<circle cx="142.649" cy="57.1706" r="28.6491" fill="#9F2424"/>
<path d="M142.776 19.8638L146.305 25.9756H139.248L142.776 19.8638Z" fill="#7B0E0E"/>
<path d="M158.831 23.208L159.747 30.2057L153.229 27.5001L158.831 23.208Z" fill="#7B0E0E"/>
<path d="M126.422 23.208L125.506 30.2057L132.024 27.5001L126.422 23.208Z" fill="#7B0E0E"/>
<path d="M115.19 31.5626L116.795 38.435L121.944 33.6092L115.19 31.5626Z" fill="#7B0E0E"/>
<path d="M169.912 31.5626L168.307 38.435L163.158 33.6092L169.912 31.5626Z" fill="#7B0E0E"/>
</g>
<g clip-path="url(#clip4_1058_54)">
<rect width="57.2981" height="57.2981" transform="translate(171 57)" fill="white"/>
<rect x="171" y="57" width="57.2981" height="57.2981" fill="#FCBD26"/>
<path d="M199.776 114.298H193.155C193.155 114.298 197.108 62.8569 199.776 62.8569C202.445 62.8569 206.397 114.298 206.397 114.298H199.776Z" fill="#9F2424"/>
<path d="M215.82 114.298H209.199C209.199 114.298 213.152 72.2793 215.82 72.2793C218.488 72.2793 222.441 114.298 222.441 114.298H215.82Z" fill="#7B0E0E"/>
<path d="M183.733 114.298H177.112C177.112 114.298 181.065 72.2793 183.733 72.2793C186.401 72.2793 190.354 114.298 190.354 114.298H183.733Z" fill="#7B0E0E"/>
</g>
<defs>
<clipPath id="clip0_1058_54">
<rect width="57.2981" height="57.2981" fill="white" transform="translate(0 57)"/>
</clipPath>
<clipPath id="clip1_1058_54">
<rect width="57.2981" height="56.7888" fill="white" transform="translate(57 57)"/>
</clipPath>
<clipPath id="clip2_1058_54">
<rect width="57.2981" height="57.2981" fill="white"/>
</clipPath>
<clipPath id="clip3_1058_54">
<rect width="57.2981" height="57.2981" fill="white" transform="translate(114)"/>
</clipPath>
<clipPath id="clip4_1058_54">
<rect width="57.2981" height="57.2981" fill="white" transform="translate(171 57)"/>
</clipPath>
</defs>
</svg>
